<svg width="22" height="22" viewBox="0 0 22 22" fill="none" xmlns="http://www.w3.org/2000/svg">
<path d="M11.058 5.60938C14.0111 5.60938 16.4486 8.04688 16.4486 11C16.4486 14 14.0111 16.3906 11.058 16.3906C8.05796 16.3906 5.66733 14 5.66733 11C5.66733 8.04688 8.05796 5.60938 11.058 5.60938ZM11.058 14.5156C12.9798 14.5156 14.5267 12.9688 14.5267 11C14.5267 9.07812 12.9798 7.53125 11.058 7.53125C9.08921 7.53125 7.54233 9.07812 7.54233 11C7.54233 12.9688 9.13608 14.5156 11.058 14.5156ZM17.9017 5.42188C17.9017 6.125 17.3392 6.6875 16.6361 6.6875C15.933 6.6875 15.3705 6.125 15.3705 5.42188C15.3705 4.71875 15.933 4.15625 16.6361 4.15625C17.3392 4.15625 17.9017 4.71875 17.9017 5.42188ZM21.4642 6.6875C21.558 8.42188 21.558 13.625 21.4642 15.3594C21.3705 17.0469 20.9955 18.5 19.7767 19.7656C18.558 20.9844 17.058 21.3594 15.3705 21.4531C13.6361 21.5469 8.43296 21.5469 6.69858 21.4531C5.01108 21.3594 3.55796 20.9844 2.29233 19.7656C1.07358 18.5 0.698581 17.0469 0.604831 15.3594C0.511081 13.625 0.511081 8.42188 0.604831 6.6875C0.698581 5 1.07358 3.5 2.29233 2.28125C3.55796 1.0625 5.01108 0.6875 6.69858 0.59375C8.43296 0.5 13.6361 0.5 15.3705 0.59375C17.058 0.6875 18.558 1.0625 19.7767 2.28125C20.9955 3.5 21.3705 5 21.4642 6.6875ZM19.2142 17.1875C19.7767 15.8281 19.6361 12.5469 19.6361 11C19.6361 9.5 19.7767 6.21875 19.2142 4.8125C18.8392 3.92188 18.1361 3.17188 17.2455 2.84375C15.8392 2.28125 12.558 2.42188 11.058 2.42188C9.51108 2.42188 6.22983 2.28125 4.87046 2.84375C3.93296 3.21875 3.22983 3.92188 2.85483 4.8125C2.29233 6.21875 2.43296 9.5 2.43296 11C2.43296 12.5469 2.29233 15.8281 2.85483 17.1875C3.22983 18.125 3.93296 18.8281 4.87046 19.2031C6.22983 19.7656 9.51108 19.625 11.058 19.625C12.558 19.625 15.8392 19.7656 17.2455 19.2031C18.1361 18.8281 18.8861 18.125 19.2142 17.1875Z" fill="white"/>
</svg>
