<svg width="25" height="20" viewBox="0 0 25 20" fill="none" xmlns="http://www.w3.org/2000/svg">
<path d="M21.5923 5.125C21.5923 5.35938 21.5923 5.54688 21.5923 5.78125C21.5923 12.2969 16.6704 19.75 7.62357 19.75C4.81107 19.75 2.23295 18.9531 0.0766983 17.5469C0.451698 17.5938 0.826698 17.6406 1.24857 17.6406C3.54545 17.6406 5.65482 16.8438 7.34232 15.5312C5.18607 15.4844 3.35795 14.0781 2.74857 12.1094C3.0767 12.1562 3.35795 12.2031 3.68607 12.2031C4.10795 12.2031 4.5767 12.1094 4.9517 12.0156C2.7017 11.5469 1.0142 9.57812 1.0142 7.1875V7.14062C1.67045 7.51562 2.46732 7.70312 3.2642 7.75C1.90482 6.85938 1.06107 5.35938 1.06107 3.67188C1.06107 2.73438 1.29545 1.89062 1.71732 1.1875C4.15482 4.14062 7.81107 6.10938 11.8892 6.34375C11.7954 5.96875 11.7486 5.59375 11.7486 5.21875C11.7486 2.5 13.9517 0.296875 16.6704 0.296875C18.0767 0.296875 19.3423 0.859375 20.2798 1.84375C21.3579 1.60938 22.4361 1.1875 23.3736 0.625C22.9986 1.79688 22.2486 2.73438 21.2173 3.34375C22.2017 3.25 23.1861 2.96875 24.0298 2.59375C23.3736 3.57812 22.5298 4.42188 21.5923 5.125Z" fill="white"/>
</svg>
