<svg width="317" height="59" viewBox="0 0 317 59" fill="none" xmlns="http://www.w3.org/2000/svg">
<rect x="69" width="248" height="58.32" fill="black"/>
<path d="M92.16 39.624V41H72V39.624H76.096C75.072 39.0907 74.1333 38.4293 73.28 37.64L75.648 34.792C77.9093 36.7547 80.256 37.736 82.688 37.736C83.904 37.736 84.864 37.48 85.568 36.968C86.2933 36.4347 86.656 35.7413 86.656 34.888C86.656 34.0133 86.3147 33.3413 85.632 32.872C84.9707 32.3813 83.8187 31.944 82.176 31.56C80.5333 31.1547 79.2853 30.792 78.432 30.472C77.5787 30.1307 76.8213 29.6933 76.16 29.16C74.8373 28.1573 74.176 26.6213 74.176 24.552C74.176 22.4827 74.9227 20.8933 76.416 19.784C77.9307 18.6533 79.7973 18.088 82.016 18.088C83.4453 18.088 84.864 18.3227 86.272 18.792C87.68 19.2613 88.896 19.9227 89.92 20.776L87.904 23.624C87.2427 23.0267 86.3467 22.536 85.216 22.152C84.0853 21.768 82.9653 21.576 81.856 21.576C80.768 21.576 79.872 21.8 79.168 22.248C78.464 22.696 78.112 23.3787 78.112 24.296C78.112 25.192 78.464 25.8853 79.168 26.376C79.872 26.8453 81.3653 27.3573 83.648 27.912C85.952 28.4667 87.68 29.2453 88.832 30.248C90.0053 31.2507 90.592 32.6587 90.592 34.472C90.592 36.6693 89.7813 38.3867 88.16 39.624H92.16ZM119.004 39.624V41H111.868L109.628 35.912H98.4283L96.1883 41H89.0522V39.624H92.7643L102.012 18.632H106.044L115.292 39.624H119.004ZM108.092 32.424L104.028 23.208L99.9643 32.424H108.092ZM135.234 39.624V41H115.906V39.624H119.01V18.632H133.922L133.89 22.152H122.786V28.296H132.706V31.784H122.786V39.624H135.234ZM162.067 39.624V41H154.931L152.691 35.912H141.491L139.251 41H132.115V39.624H135.827L145.075 18.632H149.107L158.355 39.624H162.067ZM151.155 32.424L147.091 23.208L143.027 32.424H151.155ZM183.065 39.624V41H176.153L170.809 33.48H165.849V41H158.969V39.624H162.073V18.632H170.393C173.806 18.632 176.249 19.208 177.721 20.36C179.193 21.512 179.929 23.3573 179.929 25.896C179.929 29.5867 178.318 31.912 175.097 32.872L179.961 39.624H183.065ZM170.553 30.056C172.686 30.056 174.137 29.7253 174.905 29.064C175.673 28.4027 176.057 27.3467 176.057 25.896C176.057 24.424 175.662 23.4213 174.873 22.888C174.083 22.3333 172.675 22.056 170.649 22.056H165.849V30.056H170.553ZM185.354 39.624V18.632H189.13V39.624H192.234V41H182.25V39.624H185.354Z" fill="#989898"/>
<path d="M217.083 39.624V41H210.203V31.848H199.099V41H195.323V18.632H199.099V28.328H210.203V18.632H213.979V39.624H217.083ZM195.323 39.624H192.219V41H195.323V39.624ZM243.974 39.624V41H217.094V39.624H224.422C222.672 38.6213 221.286 37.2453 220.262 35.496C219.259 33.7467 218.758 31.7947 218.758 29.64C218.758 26.3547 219.888 23.6133 222.15 21.416C224.411 19.1973 227.206 18.088 230.534 18.088C233.862 18.088 236.656 19.1973 238.918 21.416C241.179 23.6133 242.31 26.3547 242.31 29.64C242.31 31.7733 241.798 33.7253 240.774 35.496C239.771 37.2667 238.395 38.6427 236.646 39.624H243.974ZM236.134 23.912C234.619 22.3333 232.752 21.544 230.534 21.544C228.315 21.544 226.438 22.3333 224.902 23.912C223.387 25.4907 222.63 27.4107 222.63 29.672C222.63 31.912 223.387 33.8213 224.902 35.4C226.438 36.9787 228.315 37.768 230.534 37.768C232.752 37.768 234.619 36.9787 236.134 35.4C237.67 33.8213 238.438 31.912 238.438 29.672C238.438 27.4107 237.67 25.4907 236.134 23.912ZM275.425 39.624V41H268.545V23.528L260.737 39.048H258.625L250.849 23.528V41H243.969V39.624H247.073V18.632H252.961L259.713 32.68L266.465 18.632H272.321V39.624H275.425ZM278.542 39.624V18.632H294.253V22.184H282.318V28.104H293.038V31.464H282.318V37.448H294.638V39.624H297.742V41H275.438V39.624H278.542Z" fill="white"/>
<g clip-path="url(#clip0_6_382)">
<rect x="1.84814" y="2.46429" width="63.4554" height="52.9821" fill="white"/>
<path d="M0 29.1607V58.3214H34.5H69V29.1607V1.12653e-05H34.5H0V29.1607ZM59.9643 11.9107V14.7857H54.2143C50.1893 14.7857 48.4643 15.1143 48.3821 15.7714C48.3 16.3464 48.2179 24.4786 48.2179 33.8429C48.1357 44.6857 47.725 51.175 47.15 51.75C46.575 52.325 41.7286 52.5714 33.1857 52.4072L20.125 52.1607L19.8786 33.4322L19.7143 14.7857H13.5536H7.39286V11.9107V9.03573H33.6786H59.9643V11.9107ZM16.4286 27.1072C16.4286 29.4893 16.3464 29.5714 12.3214 29.5714C8.29643 29.5714 8.21429 29.4893 8.21429 27.1072C8.21429 24.725 8.29643 24.6429 12.3214 24.6429C16.3464 24.6429 16.4286 24.725 16.4286 27.1072ZM59.5536 27.1072C59.5536 28.9143 59.1429 29.1607 55.9393 29.4072C51.8321 29.7357 50.5179 28.8322 51.3393 26.2857C51.8321 24.8072 52.4071 24.5607 55.6929 24.8072C59.225 25.0536 59.5536 25.2179 59.5536 27.1072ZM15.6071 44.275C15.6071 45.0143 14.375 46.575 12.8964 47.8072C10.2679 49.8607 10.1036 49.8607 9.2 48.3822C7.72143 46.0822 7.96786 45.0964 10.4321 42.55C12.4857 40.4143 12.7321 40.3322 14.1286 41.6464C14.95 42.3857 15.6071 43.5357 15.6071 44.275ZM58.8143 48.1357L57.3357 50.3536L54.3786 47.3964C51.5036 44.5214 51.5036 44.4393 52.9 42.2214L54.3786 40.0036L57.3357 42.9607C60.2107 45.8357 60.2107 45.9179 58.8143 48.1357Z" fill="black"/>
<path d="M24.9714 15.8536C24.725 16.5107 24.6429 19.7143 24.8072 23.0822L25.0536 29.1607H33.6786H42.3036L42.55 21.9322L42.7964 14.7857H34.0893C27.6 14.7857 25.3 15.0322 24.9714 15.8536Z" fill="black"/>
<path d="M32.1998 35.1572L24.5605 35.4036L24.807 40.9072L25.0534 46.4107H33.6784H42.3034L42.5498 40.9893C42.7963 34.5822 43.2891 34.8286 32.1998 35.1572Z" fill="black"/>
</g>
<defs>
<clipPath id="clip0_6_382">
<rect width="69" height="58.3214" fill="white"/>
</clipPath>
</defs>
</svg>
