<svg width="26" height="26" viewBox="0 0 26 26" fill="none" xmlns="http://www.w3.org/2000/svg">
<rect width="26" height="26" rx="2" fill="black"/>
<rect x="2" y="3" width="22" height="20" fill="white"/>
<path d="M9.57507 8.02364C9.48221 8.29406 9.45126 9.61237 9.51316 10.9983L9.60602 13.4997H12.856H16.106L16.1989 10.525L16.2917 7.5842H13.0108C10.5655 7.5842 9.69888 7.68561 9.57507 8.02364Z" fill="black"/>
<path d="M12.299 15.9673L9.42041 16.0687L9.51327 18.3335L9.60612 20.5983H12.8561H16.1061L16.199 18.3673C16.2918 15.7307 16.4776 15.8321 12.299 15.9673Z" fill="black"/>
<path d="M1 14V25H13L25 24.5V13V2L13 1L1 1.5V14ZM22.5952 5.90141V7.08451H20.4286C18.9119 7.08451 18.2619 7.21972 18.231 7.49014C18.2 7.72676 18.169 11.0732 18.169 14.9268C18.1381 19.3887 17.9833 22.0592 17.7667 22.2958C17.55 22.5324 15.7238 22.6338 12.5048 22.5662L7.58333 22.4648L7.49048 14.7577L7.42857 7.08451H5.10714H2.78571V5.90141V4.71831H12.6905H22.5952V5.90141ZM6.19048 12.1549C6.19048 13.1352 6.15952 13.169 4.64286 13.169C3.12619 13.169 3.09524 13.1352 3.09524 12.1549C3.09524 11.1746 3.12619 11.1408 4.64286 11.1408C6.15952 11.1408 6.19048 11.1746 6.19048 12.1549ZM22.4405 12.1549C22.4405 12.8986 22.2857 13 21.0786 13.1014C19.531 13.2366 19.0357 12.8648 19.3452 11.8169C19.531 11.2085 19.7476 11.107 20.9857 11.2085C22.3167 11.3099 22.4405 11.3775 22.4405 12.1549ZM5.88095 19.2197C5.88095 19.5239 5.41667 20.1662 4.85952 20.6732C3.86905 21.5183 3.80714 21.5183 3.46667 20.9099C2.90952 19.9634 3.00238 19.5577 3.93095 18.5099C4.70476 17.631 4.79762 17.5972 5.32381 18.138C5.63333 18.4423 5.88095 18.9155 5.88095 19.2197ZM22.1619 20.8085L21.6048 21.7211L20.4905 20.5042C19.4071 19.3211 19.4071 19.2873 19.9333 18.3746L20.4905 17.462L21.6048 18.6789C22.6881 19.862 22.6881 19.8958 22.1619 20.8085Z" fill="black"/>
</svg>
